<?xml version="1.0" encoding="utf-8"?>
<!-- Generator: Adobe Illustrator 25.4.1, SVG Export Plug-In . SVG Version: 6.00 Build 0)  -->
<svg version="1.1" id="Layer_1" xmlns="http://www.w3.org/2000/svg" xmlns:xlink="http://www.w3.org/1999/xlink" x="0px" y="0px"
	 viewBox="0 0 24 24" style="enable-background:new 0 0 24 24;" xml:space="preserve">
<path d="M19.2796,19.2797c-0.2931,0.2931-0.7673,0.2931-1.0608,0l-6.2189-6.2203l-6.2203,6.2203
	c-0.2931,0.2931-0.7673,0.2931-1.0608,0c-0.2931-0.2931-0.2931-0.7673,0-1.0608L10.9405,12L4.7197,5.7797
	c-0.2931-0.2931-0.2931-0.7673,0-1.0608c0.2931-0.2931,0.7673-0.2931,1.0608,0l6.2194,6.2217l6.2203-6.2203
	c0.2931-0.2931,0.7673-0.2931,1.0608,0c0.2931,0.2931,0.2931,0.7673,0,1.0608L13.0593,12l6.2203,6.2203
	C19.5749,18.5109,19.5749,18.9891,19.2796,19.2797z"/>
</svg>
