<?xml version="1.0" encoding="utf-8"?>
<!-- Generator: Adobe Illustrator 25.4.1, SVG Export Plug-In . SVG Version: 6.00 Build 0)  -->
<svg version="1.1" id="Layer_1" xmlns="http://www.w3.org/2000/svg" xmlns:xlink="http://www.w3.org/1999/xlink" x="0px" y="0px"
	 viewBox="0 0 24 24" style="enable-background:new 0 0 24 24;" xml:space="preserve">
<path d="M19.6457,19.647c-0.4689,0.4689-1.2276,0.4689-1.697,0l-5.9489-5.9511L6.0487,19.647c-0.4689,0.4689-1.2276,0.4689-1.697,0
	c-0.4689-0.4689-0.4689-1.2276,0-1.697l5.9534-5.9489L4.3532,6.05c-0.4689-0.4689-0.4689-1.2276,0-1.697
	c0.4689-0.4689,1.2276-0.4689,1.697,0l5.9496,5.9534l5.9511-5.9511c0.4689-0.4689,1.2276-0.4689,1.697,0
	c0.4689,0.4689,0.4689,1.2276,0,1.697l-5.9534,5.9489l5.9511,5.9511C20.1181,18.4172,20.1181,19.1821,19.6457,19.647z"/>
</svg>
