<svg id="Layer_1" data-name="Layer 1" xmlns="http://www.w3.org/2000/svg" viewBox="0 0 400 94"><path d="M125.76,72.19,134.47,64c4.63,4.47,9.73,7.21,17.1,7.21,5.65,0,9.49-2.11,9.49-5.57s-1.88-5-12.71-7.06C134.94,56,128.5,51.4,128.5,41.13s8.95-16.56,22.21-16.56c11,0,18.67,4.08,23.77,9.81L165.38,42c-3.14-3.37-7.38-6.12-14.44-6.12-5.41,0-8.24,1.8-8.24,4.94s2,4.71,12.24,6.44c14.12,2.43,20.48,7.21,20.48,17.41,0,11.53-9.81,17.81-24.16,17.81C140.35,82.47,131.64,78.55,125.76,72.19Z"/><path d="M194.32,40h9.81v9.25h-9.81V66.54c0,3.46,1,5,4.71,5a23,23,0,0,0,5.73-.79v9.89a32,32,0,0,1-9.5,1.41c-10.59,0-14.12-5-14.12-13.5V49.28h-5.65V40h5.65V29.2h13.18Z"/><path d="M248.76,60.82v2.35H220.05c.39,6,3.92,9,9.18,9,4.39,0,7-2.19,8.87-5.17L248.45,72c-4.08,6.43-10.59,10.12-19.93,10.12-13.65,0-22-9.26-22-22.13s7.84-22.12,21.26-22.12C240.76,37.83,248.76,46.62,248.76,60.82ZM220,55.33h15.46c-.32-5.81-3.22-8.24-7.77-8.24C223.58,47.09,220.36,49.44,220,55.33Z"/><path d="M316.7,53.84V81H303.52V57.92c0-6.52-1.1-9-5.1-9-3.77,0-6.43,3.38-6.43,8.71V81H278.81V57.92c0-6.52-.79-9-5.1-9-3.69,0-6.44,3.38-6.44,8.71V81H254.09V39h12.63v4.86c3.22-4.16,6.83-6,12.16-6,5.65,0,9.58,2.51,11.46,6.83a15.07,15.07,0,0,1,13.26-6.83C312.23,37.83,316.7,43.48,316.7,53.84Z"/><path d="M378.35,81H365.72v-5.1A15,15,0,0,1,353,82.08c-7.76,0-13.88-4.47-13.88-14.67V39h13.18V64.19c0,4.87,1.8,6.59,5.49,6.59,4.47,0,7.38-3.45,7.38-8.55V39h13.17Z"/><path d="M400,26.3a7.54,7.54,0,0,1-15.06,0,7.54,7.54,0,0,1,15.06,0ZM399.06,81H385.88V39h13.18Z"/><path d="M46.69,50.24a17.62,17.62,0,0,0,17.6-17.59c0-9-14.21-27.94-15.83-30.07L46.69.25,44.92,2.58C43.3,4.71,29.1,23.67,29.1,32.65A17.61,17.61,0,0,0,46.69,50.24Zm0-42.57c4.83,6.7,13.15,19.4,13.15,25A13.15,13.15,0,0,1,48.91,45.59V26H44.47V45.59A13.15,13.15,0,0,1,33.54,32.65C33.54,27.07,41.86,14.37,46.69,7.67Z"/><path d="M2.9,39.93,0,39.53l.4,2.9C.74,45,3.94,67.32,10,73.39A16.86,16.86,0,1,0,33.86,49.55C27.79,43.48,5.43,40.27,2.9,39.93Zm29.24,28.6L21.39,57.78l-3.14,3.14L29,71.67a12.42,12.42,0,0,1-15.83-1.42C9.45,66.54,6.52,52.57,5.25,44.78,13,46.05,27,49,30.72,52.69A12.43,12.43,0,0,1,32.14,68.53Z"/><path d="M90.48,39.93c-2.53.34-24.89,3.55-31,9.62A16.86,16.86,0,0,0,83.37,73.39c6.07-6.07,9.27-28.43,9.61-31l.4-2.9ZM80.22,70.25a12.42,12.42,0,0,1-15.83,1.42L75.14,60.92,72,57.78,61.24,68.53a12.44,12.44,0,0,1,1.42-15.84c3.72-3.71,17.69-6.64,25.47-7.91C86.86,52.57,83.93,66.54,80.22,70.25Z"/><rect x="44.47" y="54.61" width="4.45" height="39.14"/></svg>