<?xml version="1.0" encoding="utf-8"?>
<!-- Generator: Adobe Illustrator 25.4.1, SVG Export Plug-In . SVG Version: 6.00 Build 0)  -->
<svg version="1.1" id="Layer_1" xmlns="http://www.w3.org/2000/svg" xmlns:xlink="http://www.w3.org/1999/xlink" x="0px" y="0px"
	 viewBox="0 0 152.1 94" style="enable-background:new 0 0 152.1 94;" xml:space="preserve">
<style type="text/css">
	.st0{fill:#2E74FF;}
</style>
<g>
	<path class="st0" d="M0,72.1l12.9-12.4c6.3,5.4,12.6,8.5,21.6,8.5c6.3,0,10-1.8,10-4.9c0-3.2-2.2-4.4-14.4-6.9
		C11.9,52.7,3.5,47.2,3.5,32.9c0-13.5,12-21.6,29.8-21.6c14.2,0,24.5,4.8,31.7,12.4L51.6,35.2c-4.8-4.6-10.1-7.1-18-7.1
		c-5.9,0-8.5,1.7-8.5,4.5c0,3.2,2.5,4.6,14,6.6c18.5,3.2,27.1,9.1,27.1,22.5c0,16.1-14.1,23.5-32.3,23.5C18.6,85.2,7.7,79.6,0,72.1z
		"/>
	<path class="st0" d="M123.1,83.2h-19v-6.8C100,82,95,84.6,87.4,84.6c-9.5,0-17.7-5.5-17.7-19.1V29h20v31.6c0,5.3,2.1,7,5.8,7
		c4.8,0,7.7-4,7.7-9.3V29h20V83.2z"/>
	<path class="st0" d="M152.1,13c0,5.8-5.1,10.3-11,10.3c-5.8,0-11-4.5-11-10.3c0-5.9,5.2-10.3,11-10.3C147,2.7,152.1,7.1,152.1,13z
		 M151.1,83.2h-20V29h20V83.2z"/>
</g>
</svg>
